<?xml version="1.0" encoding="iso-8859-1"?>
<!-- Generator: Adobe Illustrator 18.1.1, SVG Export Plug-In . SVG Version: 6.00 Build 0)  -->
<svg version="1.1" id="Capa_1" xmlns="http://www.w3.org/2000/svg" xmlns:xlink="http://www.w3.org/1999/xlink" x="0px" y="0px"
	 viewBox="0 0 34.048 34.048" style="enable-background:new 0 0 34.048 34.048;" xml:space="preserve">
<g>
	<g id="c10_light">
		<path id="_x3C_Compound_Path_x3E__1_" d="M23.141,6.605C21.778,2.592,19.655,0,17.26,0c-2.428,0-4.575,2.663-5.936,6.762
			c-1.277-0.261-2.488-0.41-3.574-0.41c-2.504,0-4.399,0.708-5.242,2.171c-1.226,2.125,0.049,5.361,2.993,8.625
			C4.45,18.364-7.08,32.495,11.378,27.444c1.36,4.014,3.486,6.604,5.882,6.604c2.422,0,4.573-2.659,5.932-6.762
			c1.279,0.264,2.49,0.413,3.574,0.413c2.504,0,4.396-0.707,5.242-2.174c1.223-2.124-0.051-5.361-2.992-8.624
			C35.573,10.345,34.544,4.486,23.141,6.605z M4.351,9.588c0.4-0.694,1.67-1.108,3.399-1.11c0.913,0,1.922,0.12,2.985,0.331
			c-0.31,1.285-0.544,2.672-0.701,4.134c-1.133,0.864-2.172,1.756-3.091,2.657C4.607,12.972,3.731,10.663,4.351,9.588z
			 M9.837,18.355c-0.499-0.412-0.974-0.823-1.406-1.231c0.435-0.429,0.901-0.86,1.405-1.292c-0.012,0.396-0.025,0.789-0.025,1.191
			C9.811,17.473,9.824,17.915,9.837,18.355z M6.98,18.664c0.913,0.863,1.946,1.709,3.065,2.529c0.163,1.487,0.41,2.897,0.732,4.201
			C-1.735,29.656,5.525,20.116,6.98,18.664z M22.114,11.261c-0.373-0.233-0.75-0.467-1.137-0.69c-0.42-0.242-0.842-0.461-1.26-0.684
			c0.67-0.259,1.33-0.494,1.975-0.696C21.852,9.842,21.995,10.532,22.114,11.261z M17.26,2.125c1.213,0,2.735,1.823,3.84,5.019
			c-1.271,0.393-2.588,0.891-3.931,1.51c-1.299-0.564-2.568-1.021-3.796-1.38C14.483,3.999,16.029,2.125,17.26,2.125z M12.791,9.322
			c0.61,0.18,1.232,0.385,1.863,0.618c-0.417,0.23-0.835,0.458-1.251,0.709c-0.346,0.211-0.675,0.433-1.007,0.65
			C12.512,10.605,12.641,9.946,12.791,9.322z M12.402,22.788c0.374,0.233,0.746,0.466,1.137,0.69c0.419,0.24,0.84,0.461,1.26,0.684
			c-0.67,0.262-1.328,0.496-1.975,0.693C12.663,24.205,12.525,23.516,12.402,22.788z M17.26,31.92c-1.216,0-2.736-1.82-3.842-5.018
			c1.27-0.391,2.586-0.889,3.929-1.506c1.298,0.564,2.568,1.021,3.794,1.38C20.034,30.049,18.489,31.92,17.26,31.92z M21.725,24.728
			c-0.613-0.179-1.232-0.384-1.863-0.618c0.416-0.232,0.834-0.459,1.25-0.71c0.348-0.212,0.674-0.436,1.008-0.653
			C22.008,23.439,21.874,24.102,21.725,24.728z M22.46,19.959c-0.779,0.56-1.596,1.1-2.449,1.618
			c-0.893,0.538-1.791,1.022-2.688,1.464c-0.91-0.425-1.82-0.887-2.719-1.406c-0.908-0.521-1.754-1.061-2.543-1.605
			c-0.076-0.957-0.123-1.955-0.123-3.006c0-1.02,0.044-1.992,0.119-2.925c0.766-0.551,1.571-1.097,2.448-1.625
			c0.889-0.541,1.79-1.024,2.688-1.466c0.91,0.426,1.824,0.887,2.72,1.405c0.91,0.526,1.752,1.064,2.541,1.609
			c0.078,0.957,0.125,1.955,0.125,3.002C22.579,18.047,22.534,19.021,22.46,19.959z M27.528,15.375
			c-0.912-0.857-1.941-1.701-3.057-2.518c-0.162-1.49-0.408-2.899-0.732-4.2C24.567,8.483,36.62,6.281,27.528,15.375z
			 M24.676,15.696c0.5,0.411,0.977,0.824,1.41,1.231c-0.441,0.435-0.912,0.864-1.406,1.286c0.012-0.395,0.027-0.788,0.027-1.189
			C24.708,16.575,24.692,16.136,24.676,15.696z M30.163,24.463c-0.396,0.693-1.668,1.107-3.396,1.107
			c-0.914,0-1.924-0.119-2.984-0.33c0.311-1.286,0.543-2.678,0.701-4.142c1.133-0.864,2.162-1.755,3.08-2.657
			C29.907,21.071,30.786,23.387,30.163,24.463z"/>
	</g>
	<g id="Capa_1_103_">
	</g>
</g>
<g>
</g>
<g>
</g>
<g>
</g>
<g>
</g>
<g>
</g>
<g>
</g>
<g>
</g>
<g>
</g>
<g>
</g>
<g>
</g>
<g>
</g>
<g>
</g>
<g>
</g>
<g>
</g>
<g>
</g>
</svg>
