<?xml version="1.0" encoding="iso-8859-1"?>
<!-- Generator: Adobe Illustrator 19.0.0, SVG Export Plug-In . SVG Version: 6.00 Build 0)  -->
<svg version="1.1" id="Layer_1" xmlns="http://www.w3.org/2000/svg" xmlns:xlink="http://www.w3.org/1999/xlink" x="0px" y="0px"
	 viewBox="0 0 512 512" style="enable-background:new 0 0 512 512;" xml:space="preserve">
<path style="fill:#FFF0E6;" d="M256,97.111c-87.613,0-158.894,71.28-158.894,158.894S168.387,414.898,256,414.898
	s158.894-71.28,158.894-158.894S343.613,97.111,256,97.111z"/>
<path style="fill:#FFE2C7;" d="M256,167.73c-48.674,0-88.274,39.6-88.274,88.274s39.6,88.274,88.274,88.274
	s88.274-39.6,88.274-88.274S304.674,167.73,256,167.73z"/>
<path style="fill:#C7CFE2;" d="M485.513,356.735c-1.09,0-2.202-0.199-3.28-0.629c-4.526-1.818-6.724-6.957-4.909-11.482
	c11.293-28.172,17.017-57.991,17.017-88.62c0-4.879,3.952-8.827,8.827-8.827s8.827,3.948,8.827,8.827
	c0,32.888-6.151,64.913-18.284,95.188C492.328,354.64,489.018,356.735,485.513,356.735z"/>
<path style="fill:#D7DEED;" d="M500.651,229.522c-4.319,0-8.095-3.172-8.724-7.577c-2.073-14.465-5.492-28.793-10.172-42.577
	c-1.569-4.612,0.905-9.63,5.522-11.198c4.621-1.569,9.63,0.905,11.194,5.526c5.031,14.81,8.707,30.206,10.931,45.749
	c0.694,4.827-2.659,9.302-7.487,9.992C501.491,229.496,501.069,229.522,500.651,229.522z"/>
<path style="fill:#E4EAF6;" d="M476.707,153.429c-3.224,0-6.327-1.768-7.884-4.836c-2.017-3.982-4.142-7.914-6.367-11.758
	c-2.444-4.215-1.004-9.621,3.215-12.06c4.22-2.449,9.625-1.009,12.06,3.215c2.397,4.138,4.676,8.345,6.84,12.621
	c2.202,4.353,0.461,9.664-3.887,11.871C479.41,153.126,478.048,153.429,476.707,153.429z"/>
<path style="fill:#AFB9D2;" d="M474.518,371.951c-4.207-2.448-9.616-1.009-12.06,3.215C419.937,448.682,340.826,494.345,256,494.345
	c-63.976,0-124.579-25.563-169.216-70.619h27.977c4.875,0,8.827-3.948,8.827-8.827s-3.952-8.827-8.827-8.827H61.796
	c-4.875,0-8.827,3.948-8.827,8.827v52.965c0,4.879,3.952,8.827,8.827,8.827s8.827-3.948,8.827-8.827v-35.368
	C118.875,483.188,185.549,512,256,512c91.106,0,176.07-49.042,221.742-127.989C480.182,379.787,478.742,374.39,474.518,371.951z"/>
<path style="fill:#FFDCB9;" d="M256,441.381c-102.218,0-185.376-83.162-185.376-185.376S153.782,70.628,256,70.628
	s185.376,83.162,185.376,185.376S358.218,441.381,256,441.381z M256,97.111c-87.613,0-158.894,71.28-158.894,158.894
	S168.387,414.898,256,414.898s158.894-71.28,158.894-158.894S343.613,97.111,256,97.111z"/>
<g>
	<path style="fill:#E1BE91;" d="M123.588,264.832h-35.31c-4.875,0-8.827-3.948-8.827-8.827s3.952-8.827,8.827-8.827h35.31
		c4.875,0,8.827,3.948,8.827,8.827S128.463,264.832,123.588,264.832z"/>
	<path style="fill:#E1BE91;" d="M423.721,264.832h-35.31c-4.875,0-8.827-3.948-8.827-8.827s3.952-8.827,8.827-8.827h35.31
		c4.875,0,8.827,3.948,8.827,8.827S428.596,264.832,423.721,264.832z"/>
</g>
<path style="fill:#464655;" d="M353.102,264.832H211.863c-4.875,0-8.827-3.948-8.827-8.827s3.952-8.827,8.827-8.827h141.239
	c4.875,0,8.827,3.948,8.827,8.827S357.977,264.832,353.102,264.832z"/>
<path style="fill:#707487;" d="M220.69,300.142c-2.259,0-4.517-0.862-6.241-2.586c-3.448-3.448-3.448-9.035,0-12.483
	l132.412-132.412c3.448-3.448,9.035-3.448,12.483,0c3.448,3.448,3.448,9.035,0,12.483L226.932,297.555
	C225.208,299.28,222.949,300.142,220.69,300.142z"/>
<g>
	<path style="fill:#E1BE91;" d="M247.173,123.593v-35.31c0-4.875,3.948-8.827,8.827-8.827c4.879,0,8.827,3.952,8.827,8.827v35.31
		c0,4.875-3.948,8.827-8.827,8.827C251.121,132.42,247.173,128.468,247.173,123.593z"/>
	<path style="fill:#E1BE91;" d="M247.173,423.726v-35.31c0-4.875,3.948-8.827,8.827-8.827c4.879,0,8.827,3.952,8.827,8.827v35.31
		c0,4.875-3.948,8.827-8.827,8.827C251.121,432.553,247.173,428.601,247.173,423.726z"/>
</g>
<circle style="fill:#5B5D6E;" cx="255.996" cy="256.007" r="26.482"/>
<circle style="fill:#464655;" cx="255.996" cy="256.007" r="8.827"/>
<path style="fill:#AFB9D2;" d="M450.204,35.319c-4.875,0-8.827,3.948-8.827,8.827v35.359C393.125,28.811,326.451,0,256,0
	C164.894,0,79.93,49.042,34.258,127.989c-2.44,4.224-1,9.621,3.224,12.06c1.388,0.81,2.91,1.189,4.409,1.189
	c3.048,0,6.013-1.578,7.651-4.405C92.064,63.318,171.174,17.655,256,17.655c63.98,0,124.586,25.565,169.224,70.628h-27.985
	c-4.875,0-8.827,3.948-8.827,8.827s3.952,8.827,8.827,8.827h52.965c4.875,0,8.827-3.948,8.827-8.827V44.146
	C459.031,39.267,455.079,35.319,450.204,35.319z"/>
<path style="fill:#C7CFE2;" d="M8.832,264.823c-4.875,0-8.827-3.948-8.827-8.827c0-32.888,6.151-64.913,18.284-95.188
	c1.811-4.526,6.926-6.767,11.478-4.905c4.526,1.811,6.724,6.948,4.909,11.473c-11.292,28.173-17.016,57.991-17.016,88.62
	C17.659,260.875,13.707,264.823,8.832,264.823z"/>
<path style="fill:#D7DEED;" d="M21.888,344.295c-3.677,0-7.112-2.311-8.357-5.992C8.5,323.493,4.823,308.097,2.6,292.554
	c-0.694-4.828,2.659-9.302,7.487-9.992c4.823-0.681,9.297,2.664,9.987,7.491c2.073,14.465,5.492,28.793,10.173,42.577
	c1.569,4.612-0.905,9.63-5.522,11.198C23.784,344.15,22.828,344.295,21.888,344.295z"/>
<path style="fill:#E4EAF6;" d="M41.913,388.416c-3.048,0-6.013-1.578-7.647-4.405c-2.397-4.138-4.676-8.345-6.84-12.621
	c-2.202-4.353-0.461-9.664,3.887-11.871c4.341-2.198,9.659-0.457,11.862,3.887c2.017,3.982,4.142,7.914,6.367,11.758
	c2.444,4.215,1.004,9.621-3.215,12.06C44.935,388.036,43.413,388.416,41.913,388.416z"/>
<g>
</g>
<g>
</g>
<g>
</g>
<g>
</g>
<g>
</g>
<g>
</g>
<g>
</g>
<g>
</g>
<g>
</g>
<g>
</g>
<g>
</g>
<g>
</g>
<g>
</g>
<g>
</g>
<g>
</g>
</svg>
