<?xml version="1.0" encoding="iso-8859-1"?>
<!-- Generator: Adobe Illustrator 19.0.0, SVG Export Plug-In . SVG Version: 6.00 Build 0)  -->
<svg version="1.1" id="Layer_1" xmlns="http://www.w3.org/2000/svg" xmlns:xlink="http://www.w3.org/1999/xlink" x="0px" y="0px"
	 viewBox="0 0 501.806 501.806" style="enable-background:new 0 0 501.806 501.806;" xml:space="preserve">
<g>
	<g>
		<g>
			<path d="M454.842,249.459h-11.161c-5.522,0-10,4.477-10,10s4.478,10,10,10h11.161c5.522,0,10-4.477,10-10
				S460.365,249.459,454.842,249.459z"/>
			<path d="M410.199,249.458H384.18V103.994l15.714,9.719c1.639,1.013,3.455,1.497,5.25,1.497c3.351,0,6.623-1.683,8.515-4.741
				c2.905-4.697,1.452-10.86-3.245-13.765L256.368,1.427c-3.448-1.903-7.481-1.903-10.928,0L91.394,96.703
				c-4.697,2.905-6.15,9.068-3.245,13.765c2.905,4.697,9.069,6.151,13.765,3.245l15.714-9.719v145.464H46.965
				c-5.522,0-10,4.477-10,10s4.478,10,10,10h110.741v0.001v87.348l-10.061-10.06c-3.906-3.905-10.236-3.905-14.143,0
				c-3.905,3.905-3.905,10.237,0,14.142l25.905,25.904c1.796,2.666,4.843,4.42,8.299,4.42c2.794,0,5.318-1.149,7.133-2.997
				c0.023-0.022,0.048-0.041,0.07-0.063l27.263-27.263c3.905-3.905,3.905-10.237,0-14.143c-3.906-3.905-10.236-3.905-14.143,0
				l-10.323,10.323v-87.612h146.396v56.964c0,5.523,4.478,10,10,10c5.522,0,10-4.477,10-10v-56.964h66.097c5.522,0,10-4.477,10-10
				S415.721,249.458,410.199,249.458z M277.431,249.459h-53.053v-92.651h53.053V249.459z M364.179,249.458h-30.077v0.001H297.43
				V146.808c0-5.523-4.478-10-10-10h-73.053c-5.522,0-10,4.477-10,10v102.651h-36.672h-30.078V91.624l113.276-70.06l113.276,70.06
				V249.458z"/>
			<path d="M169.567,430.706c5.48-0.683,9.37-5.679,8.687-11.16c-0.363-2.92-0.548-5.909-0.548-8.884c0-5.523-4.478-10-10-10
				c-5.522,0-10,4.477-10,10c0,3.799,0.236,7.62,0.702,11.357c0.63,5.061,4.938,8.765,9.91,8.765
				C168.73,430.783,169.148,430.758,169.567,430.706z"/>
			<path d="M341.305,347.761c-3.906-3.905-10.236-3.904-14.143,0l-27.263,27.263c-3.905,3.905-3.905,10.237,0,14.143
				c3.906,3.905,10.236,3.905,14.143,0l10.06-10.06v31.555c0,39.229-31.915,71.144-71.144,71.144h-4.109
				c-26.635,0-50.83-14.688-63.146-38.333c-2.552-4.898-8.587-6.802-13.488-4.25c-4.898,2.551-6.801,8.59-4.25,13.488
				c15.772,30.283,46.766,49.095,80.884,49.095h4.109c50.257,0,91.144-40.887,91.144-91.144v-31.819l10.324,10.324
				c1.953,1.953,4.512,2.929,7.071,2.929s5.118-0.977,7.071-2.929c3.905-3.905,3.905-10.237,0-14.142L341.305,347.761z"/>
		</g>
	</g>
</g>
<g>
</g>
<g>
</g>
<g>
</g>
<g>
</g>
<g>
</g>
<g>
</g>
<g>
</g>
<g>
</g>
<g>
</g>
<g>
</g>
<g>
</g>
<g>
</g>
<g>
</g>
<g>
</g>
<g>
</g>
</svg>
