<?xml version="1.0" encoding="iso-8859-1"?>
<!-- Generator: Adobe Illustrator 19.0.0, SVG Export Plug-In . SVG Version: 6.00 Build 0)  -->
<svg version="1.1" id="Layer_1" xmlns="http://www.w3.org/2000/svg" xmlns:xlink="http://www.w3.org/1999/xlink" x="0px" y="0px"
	 viewBox="0 0 512.001 512.001" style="enable-background:new 0 0 512.001 512.001;" xml:space="preserve">
<g>
	<g>
		<path d="M497.275,43.695l-28.971-28.972c-24.244-24.243-65.009-17.618-80.337,13.038l-16.032,32.064l-9.207-9.207
			c-6.529-6.53-17.117-6.53-23.647,0c-6.53,6.53-6.53,17.117,0,23.647l13.856,13.856l-26.516,26.516l-13.856-13.856
			c-6.529-6.53-17.117-6.53-23.647,0s-6.53,17.117,0,23.647l13.856,13.856l-87.472,87.472
			c-57.065-27.332-125.835-16.047-171.297,29.415c-58.675,58.675-58.675,154.147,0,212.823c58.673,58.674,154.146,58.677,212.823,0
			c45.462-45.463,56.747-114.231,29.414-171.297l87.473-87.472l15.528,15.528c6.529,6.53,17.117,6.531,23.647,0
			c6.53-6.53,6.53-17.117,0-23.647l-15.528-15.528l26.516-26.516l15.528,15.528c6.529,6.53,17.117,6.531,23.647,0
			c6.53-6.53,6.53-17.117,0-23.647l-10.88-10.88l32.064-16.032C514.904,108.701,521.513,67.93,497.275,43.695z M233.182,444.348
			c-45.65,45.65-119.907,45.622-165.529,0c-45.636-45.637-45.636-119.892,0-165.529c32.454-32.453,80.163-42.498,122.095-27.507
			l-49.816,49.816c-19.627,19.626-21.023,50.523-3.178,70.339c19.698,21.874,52.915,21.805,72.781,1.94l51.155-51.154
			C275.68,364.183,265.635,411.893,233.182,444.348z M185.887,349.76c-6.683,6.682-17.731,6.606-24.283-0.671
			c-5.837-6.481-4.951-17.389,1.974-24.314l162.843-162.843l23.648,23.648L185.887,349.76z M373.716,161.932l-23.648-23.648
			l26.516-26.516l23.648,23.648L373.716,161.932z M469.282,94.121l-42.034,21.018l-30.387-30.387l21.017-42.034
			c5.13-10.26,18.734-12.39,26.78-4.346l28.97,28.971C481.708,75.423,479.501,89.011,469.282,94.121z"/>
	</g>
</g>
<g>
	<g>
		<path d="M123.943,405.682l-23.647-23.647c-6.531-6.529-17.117-6.53-23.647,0c-6.53,6.53-6.53,17.117,0,23.647l23.647,23.647
			c6.53,6.53,17.116,6.53,23.647,0C130.473,422.799,130.473,412.212,123.943,405.682z"/>
	</g>
</g>
<g>
</g>
<g>
</g>
<g>
</g>
<g>
</g>
<g>
</g>
<g>
</g>
<g>
</g>
<g>
</g>
<g>
</g>
<g>
</g>
<g>
</g>
<g>
</g>
<g>
</g>
<g>
</g>
<g>
</g>
</svg>
