<?xml version="1.0" encoding="iso-8859-1"?>
<!-- Generator: Adobe Illustrator 19.0.0, SVG Export Plug-In . SVG Version: 6.00 Build 0)  -->
<svg version="1.1" id="Layer_1" xmlns="http://www.w3.org/2000/svg" xmlns:xlink="http://www.w3.org/1999/xlink" x="0px" y="0px"
	 viewBox="0 0 476.314 476.314" style="enable-background:new 0 0 476.314 476.314;" xml:space="preserve">
<g transform="translate(0 -540.36)">
	<g>
		<g>
			<path d="M472.733,706.417c-3.5-2.9-34.8-28.5-56.8-28.5c-13,0-23,8.1-31.9,15.3c-6.9,5.5-13.4,10.8-19.4,10.8
				c-5.4,0-11.6-5.1-18.2-10.5c-8.9-7.3-19-15.6-32.2-15.6c-13.1,0-22.9,8.2-31.6,15.4c-6.7,5.6-12.9,10.8-18.8,10.8
				c-6.1,0-12.6-5.3-19.5-11c-8.6-7.1-18.4-15.1-30.9-15.1c-13,0-23,8.1-31.9,15.3c-6.9,5.5-13.4,10.8-19.4,10.8
				c-5.9,0-12.2-5.3-18.8-10.8c-8.7-7.2-18.5-15.4-31.6-15.4c-13.1,0-22.9,8.2-31.6,15.4c-6.7,5.6-12.9,10.8-18.8,10.8
				c-10.6,0-32.7-14-45-23.9c-4.3-3.5-10.6-2.8-14.1,1.5s-2.8,10.6,1.5,14.1c3.6,2.9,35.7,28.4,57.6,28.4c13.1,0,22.9-8.2,31.6-15.4
				c6.7-5.6,12.9-10.8,18.8-10.8s12.2,5.3,18.8,10.8c8.7,7.2,18.5,15.4,31.6,15.4c13,0,23-8.1,31.9-15.3
				c6.9-5.5,13.4-10.8,19.4-10.8c5.4,0,11.6,5.1,18.2,10.5c8.9,7.3,19,15.6,32.2,15.6c13.1,0,22.9-8.2,31.6-15.4
				c6.7-5.6,12.9-10.8,18.8-10.8c6.1,0,12.6,5.3,19.5,11c8.6,7.1,18.4,15.1,30.9,15.1c13,0,23-8.1,31.9-15.3
				c6.9-5.5,13.4-10.8,19.4-10.8c10.5,0,32,13.9,43.9,23.8c1.9,1.5,4.1,2.3,6.4,2.3h0c2.9,0,5.7-1.2,7.8-3.6
				C477.533,716.217,476.933,709.917,472.733,706.417z"/>
			<path d="M3.733,618.317c3.6,2.9,35.7,28.4,57.6,28.4c13.1,0,22.9-8.2,31.6-15.4c6.7-5.6,12.9-10.8,18.8-10.8s12.2,5.3,18.8,10.8
				c8.7,7.2,18.5,15.4,31.6,15.4c13,0,23-8.1,31.9-15.3c6.9-5.5,13.4-10.8,19.4-10.8c5.4,0,11.6,5.1,18.2,10.5
				c8.9,7.3,19,15.6,32.2,15.6c13.1,0,22.9-8.2,31.6-15.4c6.7-5.6,12.9-10.8,18.8-10.8c6.1,0,12.6,5.3,19.5,11
				c8.6,7.1,18.4,15.1,30.9,15.1c13,0,23-8.1,31.9-15.3c6.9-5.5,13.4-10.8,19.4-10.8c10.5,0,32,13.9,43.9,23.8
				c1.9,1.5,4.1,2.3,6.4,2.3h0c2.9,0,5.7-1.2,7.8-3.6c3.5-4.3,2.9-10.6-1.3-14.1c-3.5-3-34.8-28.5-56.8-28.5c-13,0-23,8.1-31.9,15.3
				c-6.9,5.5-13.4,10.8-19.4,10.8c-5.4,0-11.6-5.1-18.2-10.5c-8.9-7.3-19-15.6-32.2-15.6c-13.1,0-22.9,8.2-31.6,15.4
				c-6.7,5.6-12.9,10.8-18.8,10.8c-6.1,0-12.6-5.3-19.5-11c-8.6-7.1-18.4-15.1-30.9-15.1c-13,0-23,8.1-31.9,15.3
				c-6.9,5.5-13.4,10.8-19.4,10.8c-5.9,0-12.2-5.3-18.8-10.8c-8.7-7.2-18.5-15.4-31.6-15.4c-13.1,0-22.9,8.2-31.6,15.4
				c-6.7,5.6-12.9,10.8-18.8,10.8c-10.6,0-32.7-14-45-23.9c-4.3-3.5-10.6-2.8-14.1,1.5S-0.567,614.817,3.733,618.317z"/>
			<path d="M472.733,861.317c-3.5-2.9-34.8-28.5-56.8-28.5c-13,0-23,8.1-31.9,15.3c-6.9,5.5-13.4,10.8-19.4,10.8
				c-5.4,0-11.6-5.1-18.2-10.5c-8.9-7.3-19-15.6-32.2-15.6c-13.1,0-22.9,8.2-31.6,15.4c-6.7,5.6-12.9,10.8-18.8,10.8
				c-6.1,0-12.6-5.3-19.5-11c-8.6-7.1-18.4-15.1-30.9-15.1c-13,0-23,8.1-31.9,15.3c-6.9,5.5-13.4,10.8-19.4,10.8
				c-5.9,0-12.2-5.3-18.8-10.8c-8.7-7.2-18.5-15.4-31.6-15.4c-13.1,0-22.9,8.2-31.6,15.4c-6.7,5.6-12.9,10.8-18.8,10.8
				c-10.6,0-32.7-14-45-23.9c-4.3-3.5-10.6-2.8-14.1,1.5s-2.8,10.6,1.5,14.1c3.6,2.9,35.7,28.4,57.6,28.4c13.1,0,22.9-8.2,31.6-15.4
				c6.7-5.6,12.9-10.8,18.8-10.8s12.2,5.3,18.8,10.8c8.7,7.2,18.5,15.4,31.6,15.4c13,0,23-8.1,31.9-15.3
				c6.9-5.5,13.4-10.8,19.4-10.8c5.4,0,11.6,5.1,18.2,10.5c8.9,7.3,19,15.6,32.2,15.6c13.1,0,22.9-8.2,31.6-15.4
				c6.7-5.6,12.9-10.8,18.8-10.8c6.1,0,12.6,5.3,19.5,11c8.6,7.1,18.4,15.1,30.9,15.1c13,0,23-8.1,31.9-15.3
				c6.9-5.5,13.4-10.8,19.4-10.8c10.5,0,32,13.9,43.9,23.8c1.9,1.5,4.1,2.3,6.4,2.3h0c2.9,0,5.7-1.2,7.8-3.6
				C477.533,871.117,476.933,864.817,472.733,861.317z"/>
			<path d="M472.733,783.917c-3.5-2.9-34.8-28.5-56.8-28.5c-13,0-23,8.1-31.9,15.3c-6.9,5.5-13.4,10.8-19.4,10.8
				c-5.4,0-11.6-5.1-18.2-10.5c-8.9-7.3-19-15.6-32.2-15.6c-13.1,0-22.9,8.2-31.6,15.4c-6.7,5.6-12.9,10.8-18.8,10.8
				c-6.1,0-12.6-5.3-19.5-11c-8.6-7.1-18.4-15.1-30.9-15.1c-13,0-23,8.1-31.9,15.3c-6.9,5.5-13.4,10.8-19.4,10.8
				c-5.9,0-12.2-5.3-18.8-10.8c-8.7-7.2-18.5-15.4-31.6-15.4c-13.1,0-22.9,8.2-31.6,15.4c-6.7,5.6-12.9,10.8-18.8,10.8
				c-10.6,0-32.7-14-45-23.9c-4.3-3.5-10.6-2.8-14.1,1.5s-2.8,10.6,1.5,14.1c3.6,2.9,35.7,28.4,57.6,28.4c13.1,0,22.9-8.2,31.6-15.4
				c6.7-5.6,12.9-10.8,18.8-10.8s12.2,5.3,18.8,10.8c8.7,7.2,18.5,15.4,31.6,15.4c13,0,23-8.1,31.9-15.3
				c6.9-5.5,13.4-10.8,19.4-10.8c5.4,0,11.6,5.1,18.2,10.5c8.9,7.3,19,15.6,32.2,15.6c13.1,0,22.9-8.2,31.6-15.4
				c6.7-5.6,12.9-10.8,18.8-10.8c6.1,0,12.6,5.3,19.5,11c8.6,7.1,18.4,15.1,30.9,15.1c13,0,23-8.1,31.9-15.3
				c6.9-5.5,13.4-10.8,19.4-10.8c10.5,0,32,13.9,43.9,23.8c1.9,1.5,4.1,2.3,6.4,2.3h0c2.9,0,5.7-1.3,7.8-3.6
				C477.533,793.717,476.933,787.417,472.733,783.917z"/>
			<path d="M472.733,938.817c-3.5-3-34.8-28.5-56.8-28.5c-13,0-23,8.1-31.9,15.3c-6.9,5.5-13.4,10.8-19.4,10.8
				c-5.4,0-11.6-5.1-18.2-10.5c-8.9-7.3-19-15.6-32.2-15.6c-13.1,0-22.9,8.2-31.6,15.4c-6.7,5.6-12.9,10.8-18.8,10.8
				c-6.1,0-12.6-5.3-19.5-11c-8.6-7.1-18.4-15.1-30.9-15.1c-13,0-23,8.1-31.9,15.3c-6.9,5.5-13.4,10.8-19.4,10.8
				c-5.9,0-12.2-5.3-18.8-10.8c-8.7-7.2-18.5-15.4-31.6-15.4c-13.1,0-22.9,8.2-31.6,15.4c-6.7,5.6-12.9,10.8-18.8,10.8
				c-10.6,0-32.7-14-45-23.9c-4.3-3.5-10.6-2.8-14.1,1.5s-2.8,10.6,1.5,14.1c3.6,2.9,35.7,28.4,57.6,28.4c13.1,0,22.9-8.2,31.6-15.4
				c6.7-5.6,12.9-10.8,18.8-10.8s12.2,5.3,18.8,10.8c8.7,7.2,18.5,15.4,31.6,15.4c13,0,23-8.1,31.9-15.3
				c6.9-5.5,13.4-10.8,19.4-10.8c5.4,0,11.6,5.1,18.2,10.5c8.9,7.3,19,15.6,32.2,15.6c13.1,0,22.9-8.2,31.6-15.4
				c6.7-5.6,12.9-10.8,18.8-10.8c6.1,0,12.6,5.3,19.5,11c8.6,7.1,18.4,15.1,30.9,15.1c13,0,23-8.1,31.9-15.3
				c6.9-5.5,13.4-10.8,19.4-10.8c10.5,0,32,13.9,43.9,23.8c1.9,1.5,4.1,2.3,6.4,2.3h0c2.9,0,5.7-1.2,7.8-3.6
				C477.533,948.617,476.933,942.317,472.733,938.817z"/>
		</g>
	</g>
</g>
<g>
</g>
<g>
</g>
<g>
</g>
<g>
</g>
<g>
</g>
<g>
</g>
<g>
</g>
<g>
</g>
<g>
</g>
<g>
</g>
<g>
</g>
<g>
</g>
<g>
</g>
<g>
</g>
<g>
</g>
</svg>
