<?xml version="1.0" encoding="iso-8859-1"?>
<!-- Generator: Adobe Illustrator 19.0.0, SVG Export Plug-In . SVG Version: 6.00 Build 0)  -->
<svg version="1.1" id="Capa_1" xmlns="http://www.w3.org/2000/svg" xmlns:xlink="http://www.w3.org/1999/xlink" x="0px" y="0px"
	 viewBox="0 0 470 470" style="enable-background:new 0 0 470 470;" xml:space="preserve">
<g>
	<path d="M463.404,78.948L391.047,6.591C386.797,2.341,381.145,0,375.134,0s-11.661,2.341-15.911,6.591s-6.59,9.9-6.59,15.911
		c0,3.412,0.779,6.697,2.208,9.687l-17.476,17.475c-30.96-17.127-65.949-26.244-102.371-26.244
		c-56.602,0-109.758,21.984-149.677,61.902C17.174,153.468,5.304,256.894,49.69,337.34l-17.506,17.506
		c-2.99-1.43-6.275-2.208-9.687-2.208c-6.01,0-11.661,2.34-15.912,6.59c-8.772,8.773-8.772,23.049,0,31.823l72.358,72.357
		c4.25,4.25,9.9,6.591,15.911,6.591s11.661-2.34,15.912-6.591c6.912-6.912,8.354-17.23,4.375-25.591l17.484-17.484
		c30.96,17.127,65.949,26.244,102.371,26.244c56.602,0,109.757-21.984,149.675-61.902c68.144-68.144,80.015-171.571,35.629-252.018
		l17.505-17.505c2.99,1.43,6.275,2.208,9.687,2.208c6.01,0,11.661-2.34,15.91-6.59c4.251-4.25,6.592-9.901,6.592-15.912
		C469.995,88.849,467.654,83.198,463.404,78.948z M100.16,452.802C98.742,454.22,96.858,455,94.854,455s-3.887-0.78-5.304-2.197
		l-72.358-72.357c-2.925-2.925-2.925-7.685-0.001-10.609c1.418-1.417,3.302-2.197,5.306-2.197s3.888,0.78,5.305,2.197l72.357,72.358
		C103.085,445.118,103.085,449.877,100.16,452.802z M105.462,426.283l-61.75-61.75l13.942-13.942
		c7.868,12.065,17.083,23.503,27.665,34.084c10.497,10.497,21.918,19.741,34.068,27.684L105.462,426.283z M374.064,374.07
		c-37.084,37.084-86.473,57.508-139.067,57.508c-35.53,0-69.589-9.333-99.388-26.813c-0.287-0.196-0.586-0.368-0.892-0.52
		c-13.977-8.299-27.006-18.393-38.79-30.177C19.243,297.385,19.243,172.613,95.925,95.93
		c37.085-37.085,86.474-57.509,139.069-57.509c35.523,0,69.576,9.329,99.371,26.802c0.298,0.205,0.608,0.384,0.927,0.541
		c13.969,8.297,26.993,18.387,38.771,30.166C450.748,172.614,450.748,297.387,374.064,374.07z M384.672,85.323
		c-10.497-10.497-21.917-19.74-34.067-27.684l13.923-13.923l61.75,61.75l-13.941,13.941
		C404.469,107.343,395.254,95.905,384.672,85.323z M452.797,100.165c-1.416,1.417-3.3,2.197-5.304,2.197s-3.889-0.78-5.305-2.197
		l-72.357-72.358c-1.417-1.417-2.197-3.301-2.197-5.305s0.78-3.888,2.197-5.305c1.416-1.417,3.3-2.197,5.304-2.197
		s3.888,0.78,5.305,2.197l72.358,72.358c1.417,1.417,2.197,3.301,2.197,5.305C454.995,96.863,454.214,98.747,452.797,100.165z"/>
	<path d="M363.456,106.539c-34.267-34.262-79.886-53.128-128.461-53.128c-48.578,0-94.2,18.868-128.461,53.128
		c-70.83,70.831-70.832,186.08-0.005,256.913c34.273,34.269,79.892,53.135,128.468,53.135c48.577,0,94.198-18.868,128.459-53.127
		C434.287,292.629,434.288,177.379,363.456,106.539z M401.115,222.483L317.1,306.498l-30.445-30.445l103.043-103.043
		C396.05,188.924,399.857,205.624,401.115,222.483z M358.027,347.425l-30.32-30.32l73.664-73.663
		C399.486,280.933,385.036,317.9,358.027,347.425z M301.191,333.015c-2.93-2.929-7.678-2.929-10.607,0l-68.114,68.114
		c-17.18-1.263-33.829-5.131-49.499-11.392l87.167-87.168c2.929-2.929,2.929-7.678,0-10.606c-2.93-2.929-7.678-2.929-10.607,0
		l-91.118,91.119c-12.877-6.664-24.923-15.05-35.845-25.047l112.427-112.427l76.801,76.801c0.002,0.002,35.627,35.627,35.627,35.627
		c-28.676,26.25-65.09,41.426-103.99,43.345l57.758-57.758C304.12,340.692,304.12,335.943,301.191,333.015z M86.942,311.555
		l107.001-107.001l30.445,30.446L111.964,347.424C101.868,336.387,93.527,324.311,86.942,311.555z M68.875,247.517l84.016-84.016
		l30.445,30.445L80.293,296.99C73.941,281.076,70.134,264.376,68.875,247.517z M111.963,122.574l30.321,30.321L68.62,226.559
		C70.504,189.067,84.954,152.099,111.963,122.574z M297.02,80.263l-87.168,87.168c-2.929,2.929-2.929,7.678,0,10.606
		c1.465,1.464,3.385,2.197,5.304,2.197s3.839-0.732,5.304-2.197l91.119-91.119c12.877,6.663,24.922,15.049,35.844,25.047
		L234.995,224.392l-35.747-35.747c-0.003-0.003-35.75-35.751-35.75-35.751l84.024-84.024
		C264.701,70.134,281.351,74.002,297.02,80.263z M152.891,142.288l-30.323-30.323c28.676-26.249,65.089-41.426,103.99-43.344
		L152.891,142.288z M276.048,265.446l-30.446-30.446l112.425-112.425c10.096,11.037,18.437,23.113,25.023,35.87L276.048,265.446z"/>
</g>
<g>
</g>
<g>
</g>
<g>
</g>
<g>
</g>
<g>
</g>
<g>
</g>
<g>
</g>
<g>
</g>
<g>
</g>
<g>
</g>
<g>
</g>
<g>
</g>
<g>
</g>
<g>
</g>
<g>
</g>
</svg>
