<?xml version="1.0" encoding="iso-8859-1"?>
<!-- Generator: Adobe Illustrator 18.0.0, SVG Export Plug-In . SVG Version: 6.00 Build 0)  -->
<!DOCTYPE svg PUBLIC "-//W3C//DTD SVG 1.1//EN" "http://www.w3.org/Graphics/SVG/1.1/DTD/svg11.dtd">
<svg version="1.1" id="Capa_1" xmlns="http://www.w3.org/2000/svg" xmlns:xlink="http://www.w3.org/1999/xlink" x="0px" y="0px"
	 viewBox="0 0 52 52" style="enable-background:new 0 0 52 52;" xml:space="preserve">
<g>
	<path d="M43.82,8.181C39.509,3.869,33.778,1.5,27.67,1.5c-0.039,0-0.079,0-0.118,0C22.189,1.526,17.101,3.375,13,6.745V1
		c0-0.553-0.448-1-1-1s-1,0.447-1,1v8c0,0.13,0.027,0.26,0.077,0.382c0.101,0.245,0.296,0.439,0.541,0.541
		C11.74,9.973,11.87,10,12,10h9c0.552,0,1-0.447,1-1s-0.448-1-1-1h-6.34c3.679-2.884,8.168-4.476,12.901-4.5
		c0.036,0,0.072,0,0.107,0c5.574,0,10.804,2.162,14.737,6.095c7.768,7.768,8.14,20.363,0.846,28.676
		c-0.364,0.415-0.323,1.047,0.092,1.411c0.19,0.166,0.425,0.248,0.659,0.248c0.278,0,0.555-0.115,0.752-0.341
		C52.742,30.487,52.331,16.691,43.82,8.181z"/>
	<path d="M40.382,42.077C40.26,42.026,40.13,42,40,42h-9c-0.552,0-1,0.447-1,1s0.448,1,1,1h6.34
		c-3.679,2.884-8.168,4.476-12.901,4.5c-5.623,0.04-10.886-2.137-14.844-6.095c-7.771-7.771-8.141-20.37-0.84-28.682
		c0.364-0.415,0.323-1.047-0.092-1.411c-0.414-0.364-1.047-0.323-1.411,0.091c-7.994,9.103-7.586,22.901,0.929,31.416
		c4.311,4.312,10.042,6.681,16.15,6.681c0.039,0,0.079,0,0.118,0c5.363-0.026,10.45-1.875,14.551-5.245V51c0,0.553,0.448,1,1,1
		s1-0.447,1-1v-8c0-0.13-0.027-0.26-0.077-0.382C40.822,42.373,40.627,42.178,40.382,42.077z"/>
</g>
<g>
</g>
<g>
</g>
<g>
</g>
<g>
</g>
<g>
</g>
<g>
</g>
<g>
</g>
<g>
</g>
<g>
</g>
<g>
</g>
<g>
</g>
<g>
</g>
<g>
</g>
<g>
</g>
<g>
</g>
</svg>
