<?xml version="1.0" encoding="iso-8859-1"?>
<!-- Generator: Adobe Illustrator 18.1.1, SVG Export Plug-In . SVG Version: 6.00 Build 0)  -->
<svg version="1.1" id="Capa_1" xmlns="http://www.w3.org/2000/svg" xmlns:xlink="http://www.w3.org/1999/xlink" x="0px" y="0px"
	 viewBox="0 0 470.383 470.383" style="enable-background:new 0 0 470.383 470.383;" xml:space="preserve">
<g>
	<g>
		<g>
			<path style="fill:#010002;" d="M470.383,9.868l-8.356-8.372l-1.276,1.276c-13.672,13.672-23.996,15.249-30.572,15.249
				c-4.227,0-8.185-0.732-12.03-1.431c-3.341-0.61-6.804-1.236-10.242-1.236c-5.747,0-10.218,1.764-14.03,5.576
				c-11.209,11.201-14.794,27.775-9.299,42.537L371.28,75.652v-1.049h-6.478v-6.487h-16.582v16.582h6.478v6.178l-2.699,2.471h-5.95
				V86.87h-16.566v16.582h6.478v4.625l-81.294,74.604l-7.194-7.194c-10.063-10.063-25.499-16.314-40.301-16.314
				c-12.152,0-22.589,4.007-30.214,11.583l-70.499,57.949l25.28,25.28c1.553,1.577,2.439,3.682,2.422,5.918
				c0,2.252-0.878,4.357-2.463,5.95l-22.142,22.126c-3.138,3.154-8.657,3.178-11.835,0l-24.825-24.833L23.58,312.438
				c-33.01,33.035-27.434,68.191-7.267,88.358l54.762,54.778c8.454,8.47,22.159,13.315,37.562,13.315
				c19.192,0,37.708-7.511,50.795-20.598l49.292-49.316l-24.808-24.825c-1.577-1.577-2.439-3.658-2.463-5.901
				c0-2.252,0.886-4.373,2.479-5.966l22.126-22.126c3.154-3.154,8.673-3.154,11.827,0l25.369,25.369l56.242-71.848
				c18.119-18.346,18.054-48.113-0.179-66.345l-12.469-12.453l76.051-80.546v2.552h6.478v6.478h16.582v-16.574h-6.478v-6.47h-3.341
				l5.519-5.861v3.682h6.462v6.495h16.582v-16.59h-6.478v-6.478h-4.398l13.762-14.558c4.771,1.894,9.771,2.853,14.892,2.853
				c10.705,0,20.817-4.211,28.458-11.868c7.413-7.397,5.804-16.338,4.349-24.264c-2.178-11.965-4.446-24.321,13.802-42.594
				L470.383,9.868z M443.64,55.875c1.431,7.795,1.715,10.998-1.049,13.754c-5.414,5.414-12.551,8.381-20.118,8.381
				c-4.658,0-9.315-1.162-13.477-3.398l-3.983-2.122L210.667,278.281l-20.395-20.411L397.99,67.231l1.016-0.927l-2.032-3.999
				c-5.56-11.006-3.43-24.272,5.275-32.994c2.821-2.812,6.706-2.357,13.786-1.057c4.17,0.764,8.885,1.626,14.176,1.626
				c4.869,0,9.502-0.748,14.062-2.26C440.543,38.838,442.25,48.202,443.64,55.875z M109.54,378.653L56.98,423.718l-10.461-10.453
				l46.951-50.682L109.54,378.653z"/>
		</g>
	</g>
</g>
<g>
</g>
<g>
</g>
<g>
</g>
<g>
</g>
<g>
</g>
<g>
</g>
<g>
</g>
<g>
</g>
<g>
</g>
<g>
</g>
<g>
</g>
<g>
</g>
<g>
</g>
<g>
</g>
<g>
</g>
</svg>
